{"title":"Mia Martina Ft. Adrian Sina - Go Crazy [Music Video] 720p [Sbyky","uid":11175897,"size":63532869,"categoryP":"video","categoryS":"music_videos","magnet":"?xt=urn:btih:12c773c72507475bcbae4467507c60c95a953f50&amp;dn=Mia+Martina+Ft.+Adrian+Sina+-+Go+Crazy+%5BMusic+Video%5D+720p+%5BSbyky&amp;tr=udp%3A%2F%2Ftracker.openbittorrent.com%3A80&amp;tr=udp%3A%2F%2Fopen.demonii.com%3A1337&amp;tr=udp%3A%2F%2Ftracker.coppersurfer.tk%3A6969&amp;tr=udp%3A%2F%2Fexodus.desync.com%3A6969","seeders":1,"leechers":2,"uploader":"Sbyky","files":1,"time":1412785128,"description":"General\nComplete name                            : Mia Martina Ft. Adrian Sina - Go Crazy [Music Video] 720p [Sbyky].MP4\nFormat                                   : MPEG-4\nFormat profile                           : Base Media / Version 2\nCodec ID                                 : mp42\nFile size                                : 60.6 MiB\nDuration                                 : 3mn 9s\nOverall bit rate mode                    : Variable\nOverall bit rate                         : 2 681 Kbps\nEncoded date                             : UTC 2014-03-07 08:57:06\nTagged date                              : UTC 2014-03-07 08:57:06\n\nVideo\nID                                       : 1\nFormat                                   : AVC\nFormat/Info                              : Advanced Video Codec\nFormat profile                           : &lt;a class=&quot;__cf_email__&quot; href=&quot;/cdn-cgi/l/email-protection&quot; data-cfemail=&quot;f8b0919f90b8b4cbd6c9&quot;&gt;[email&amp;#160;protected]&lt;/a&gt;&lt;script cf-hash='f9e31' type=&quot;text/javascript&quot;&gt;\n/* &lt;![CDATA[ */!function(){try{var t=&quot;currentScript&quot;in document?document.currentScript:function(){for(var t=document.getElementsByTagName(&quot;script&quot;),e=t.length;e--;)if(t[e].getAttribute(&quot;cf-hash&quot;))return t[e]}();if(t&amp;&amp;t.previousSibling){var e,r,n,i,c=t.previousSibling,a=c.getAttribute(&quot;data-cfemail&quot;);if(a){for(e=&quot;&quot;,r=parseInt(a.substr(0,2),16),n=2;a.length-n;n+=2)i=parseInt(a.substr(n,2),16)^r,e+=String.fromCharCode(i);e=document.createTextNode(e),c.parentNode.replaceChild(e,c)}}}catch(u){}}();/* ]]&gt; */&lt;/script&gt;\nFormat settings, CABAC                   : Yes\nFormat settings, ReFrames                : 1 frame\nCodec ID                                 : avc1\nCodec ID/Info                            : Advanced Video Coding\nDuration                                 : 3mn 9s\nBit rate                                 : 2 486 Kbps\nMaximum bit rate                         : 10.3 Mbps\nWidth                                    : 1 280 pixels\nHeight                                   : 720 pixels\nDisplay aspect ratio                     : 16:9\nFrame rate mode                          : Constant\nFrame rate                               : 23.976 fps\nColor space                              : YUV\nChroma subsampling                       : 4:2:0\nBit depth                                : 8 bits\nScan type                                : Progressive\nBits/(Pixel*Frame)                       : 0.113\nStream size                              : 56.2 MiB (93%)\nTagged date                              : UTC 2014-03-07 08:57:08\n\nAudio\nID                                       : 2\nFormat                                   : AAC\nFormat/Info                              : Advanced Audio Codec\nFormat profile                           : LC\nCodec ID                                 : 40\nDuration                                 : 3mn 9s\nBit rate mode                            : Variable\nBit rate                                 : 192 Kbps\nMaximum bit rate                         : 204 Kbps\nChannel(s)                               : 2 channels\nChannel positions                        : Front: L R\nSampling rate                            : 44.1 KHz\nCompression mode                         : Lossy\nStream size                              : 4.34 MiB (7%)\nTitle                                    : IsoMedia File Produced by Google, 5-11-2011\nEncoded date                             : UTC 2014-03-07 08:57:08\nTagged date                              : UTC 2014-03-07 08:57:08\n\nShared By Sbyky\n","torrent":{"xt":"urn:btih:12c773c72507475bcbae4467507c60c95a953f50","amp;dn":"Mia+Martina+Ft.+Adrian+Sina+-+Go+Crazy+%5BMusic+Video%5D+720p+%5BSbyky","amp;tr":["udp%3A%2F%2Ftracker.openbittorrent.com%3A80","udp%3A%2F%2Fopen.demonii.com%3A1337","udp%3A%2F%2Ftracker.coppersurfer.tk%3A6969","udp%3A%2F%2Fexodus.desync.com%3A6969"],"infoHash":"12c773c72507475bcbae4467507c60c95a953f50","infoHashBuffer":{"type":"Buffer","data":[18,199,115,199,37,7,71,91,203,174,68,103,80,124,96,201,90,149,63,80]},"announce":[],"urlList":[]}}